# 3ds Max Wavefront OBJ Exporter v0.97b - (c)2007 guruware
# File Created: 11.12.2012 13:37:29

mtllib Pencil.mtl

#
# object Cylinder002
#

v  -7.7076 0.4400 -1.5875
v  9.1561 0.4829 -1.5735
v  9.1561 0.4753 -1.5257
v  -7.7076 0.4302 -1.5257
v  -7.7076 0.4684 -1.6432
v  9.1561 0.5049 -1.6167
v  -7.7076 0.5127 -1.6875
v  9.1561 0.5392 -1.6510
v  -7.7076 0.5684 -1.7159
v  9.1561 0.5824 -1.6730
v  -7.7076 0.6302 -1.7257
v  9.1561 0.6302 -1.6806
v  -7.7076 0.6920 -1.7159
v  9.1561 0.6781 -1.6730
v  -7.7076 0.7478 -1.6875
v  9.1561 0.7213 -1.6510
v  -7.7076 0.7920 -1.6432
v  9.1561 0.7555 -1.6167
v  -7.7076 0.8204 -1.5875
v  9.1561 0.7775 -1.5735
v  -7.7076 0.8302 -1.5257
v  9.1561 0.7851 -1.5257
v  -7.7076 0.8204 -1.4639
v  9.1561 0.7775 -1.4778
v  -7.7076 0.7920 -1.4081
v  9.1561 0.7555 -1.4346
v  -7.7076 0.7478 -1.3639
v  9.1561 0.7213 -1.4004
v  -7.7076 0.6920 -1.3355
v  9.1561 0.6781 -1.3784
v  -7.7076 0.6302 -1.3257
v  9.1561 0.6302 -1.3708
v  -7.7076 0.5684 -1.3355
v  9.1561 0.5824 -1.3784
v  -7.7076 0.5127 -1.3639
v  9.1561 0.5392 -1.4004
v  -7.7076 0.4684 -1.4081
v  9.1561 0.5049 -1.4346
v  -7.7076 0.4400 -1.4639
v  9.1561 0.4829 -1.4778
v  9.5899 0.6221 -1.5283
v  9.5899 0.6233 -1.5307
v  9.5899 0.6252 -1.5326
v  9.5899 0.6221 -1.5230
v  9.5899 0.6276 -1.5338
v  9.5899 0.6302 -1.5342
v  9.5899 0.6353 -1.5326
v  9.5899 0.6329 -1.5338
v  9.5899 0.6372 -1.5307
v  9.5899 0.6384 -1.5283
v  9.5899 0.6384 -1.5230
v  9.5899 0.6388 -1.5257
v  9.5899 0.6372 -1.5206
v  9.5899 0.6353 -1.5187
v  9.5899 0.6302 -1.5171
v  9.5899 0.6329 -1.5175
v  9.5899 0.6276 -1.5175
v  9.5899 0.6252 -1.5187
v  9.5899 0.6233 -1.5206
v  9.5899 0.6217 -1.5257
# 60 vertices

vn 0.0027 -0.9511 -0.3090
vn 0.1608 -0.9387 -0.3050
vn 0.1608 -0.9870 -0.0000
vn 0.0027 -1.0000 0.0000
vn 0.0027 -0.8090 -0.5878
vn 0.1608 -0.7985 -0.5801
vn 0.0027 -0.5878 -0.8090
vn 0.1608 -0.5801 -0.7985
vn 0.0027 -0.3090 -0.9511
vn 0.1608 -0.3050 -0.9387
vn 0.0027 -0.0000 -1.0000
vn 0.1608 -0.0000 -0.9870
vn 0.0027 0.3090 -0.9511
vn 0.1608 0.3050 -0.9387
vn 0.0027 0.5878 -0.8090
vn 0.1608 0.5801 -0.7985
vn 0.0027 0.8090 -0.5878
vn 0.1608 0.7985 -0.5801
vn 0.0027 0.9511 -0.3090
vn 0.1608 0.9387 -0.3050
vn 0.0027 1.0000 -0.0000
vn 0.1608 0.9870 -0.0000
vn 0.0027 0.9511 0.3090
vn 0.1608 0.9387 0.3050
vn 0.0027 0.8090 0.5878
vn 0.1608 0.7985 0.5801
vn 0.0027 0.5878 0.8090
vn 0.1608 0.5801 0.7985
vn 0.0027 0.3090 0.9511
vn 0.1608 0.3050 0.9387
vn 0.0027 -0.0000 1.0000
vn 0.1608 -0.0000 0.9870
vn 0.0027 -0.3090 0.9511
vn 0.1608 -0.3050 0.9387
vn 0.0027 -0.5878 0.8090
vn 0.1608 -0.5801 0.7985
vn 0.0027 -0.8090 0.5878
vn 0.1608 -0.7985 0.5801
vn 0.0027 -0.9511 0.3090
vn 0.1608 -0.9387 0.3050
vn -1.0000 -0.0000 -0.0000
vn 1.0000 0.0000 -0.0000
vn 0.3197 -0.9012 -0.2928
vn 0.3197 -0.9475 0.0000
vn 0.3197 -0.7666 -0.5569
vn 0.3197 -0.5569 -0.7666
vn 0.3197 -0.2928 -0.9012
vn 0.3197 0.0000 -0.9475
vn 0.3197 0.2928 -0.9012
vn 0.3197 0.5569 -0.7666
vn 0.3197 0.7666 -0.5569
vn 0.3197 0.9012 -0.2928
vn 0.3197 0.9475 0.0000
vn 0.3197 0.9012 0.2928
vn 0.3197 0.7666 0.5569
vn 0.3197 0.5569 0.7666
vn 0.3197 0.2928 0.9012
vn 0.3197 -0.0000 0.9475
vn 0.3197 -0.2928 0.9012
vn 0.3197 -0.5569 0.7666
vn 0.3197 -0.7666 0.5569
vn 0.3197 -0.9012 0.2928
# 62 vertex normals

vt 0.8000 0.0000 1.0000
vt 0.8000 0.9400 1.0000
vt 0.7500 0.9400 1.0000
vt 0.7500 0.0000 1.0000
vt 0.8500 0.0000 1.0000
vt 0.8500 0.9400 1.0000
vt 0.9000 0.0000 1.0000
vt 0.9000 0.9400 1.0000
vt 0.9500 0.0000 1.0000
vt 0.9500 0.9400 1.0000
vt 1.0000 0.0000 1.0000
vt 1.0000 0.9400 1.0000
vt 0.0500 0.0000 1.0000
vt 0.0500 0.9400 1.0000
vt 0.0000 0.9400 1.0000
vt 0.0000 0.0000 1.0000
vt 0.1000 0.0000 1.0000
vt 0.1000 0.9400 1.0000
vt 0.1500 0.0000 1.0000
vt 0.1500 0.9400 1.0000
vt 0.2000 0.0000 1.0000
vt 0.2000 0.9400 1.0000
vt 0.2500 0.0000 1.0000
vt 0.2500 0.9400 1.0000
vt 0.3000 0.0000 1.0000
vt 0.3000 0.9400 1.0000
vt 0.3500 0.0000 1.0000
vt 0.3500 0.9400 1.0000
vt 0.4000 0.0000 1.0000
vt 0.4000 0.9400 1.0000
vt 0.4500 0.0000 1.0000
vt 0.4500 0.9400 1.0000
vt 0.5000 0.0000 1.0000
vt 0.5000 0.9400 1.0000
vt 0.5500 0.0000 1.0000
vt 0.5500 0.9400 1.0000
vt 0.6000 0.0000 1.0000
vt 0.6000 0.9400 1.0000
vt 0.6500 0.0000 1.0000
vt 0.6500 0.9400 1.0000
vt 0.7000 0.0000 1.0000
vt 0.7000 0.9400 1.0000
vt 0.7939 0.9045 -0.2500
vt 0.9045 0.7939 -0.2500
vt 0.9755 0.6545 -0.2500
vt 0.5000 1.0000 -0.2500
vt 1.0000 0.5000 -0.2500
vt 0.9755 0.3455 -0.2500
vt 0.7939 0.0955 -0.2500
vt 0.9045 0.2061 -0.2500
vt 0.6545 0.0245 -0.2500
vt 0.5000 0.0000 -0.2500
vt 0.2061 0.0955 -0.2500
vt 0.3455 0.0245 -0.2500
vt 0.0955 0.2061 -0.2500
vt 0.0245 0.3455 -0.2500
vt 0.0245 0.6545 -0.2500
vt 0.0000 0.5000 -0.2500
vt 0.0955 0.7939 -0.2500
vt 0.2061 0.9045 -0.2500
vt 0.3455 0.9755 -0.2500
vt 0.6545 0.9755 -0.2500
vt 0.3455 0.9755 0.2500
vt 0.2061 0.9045 0.2500
vt 0.0955 0.7939 0.2500
vt 0.6545 0.9755 0.2500
vt 0.0245 0.6545 0.2500
vt 0.0000 0.5000 0.2500
vt 0.0955 0.2061 0.2500
vt 0.0245 0.3455 0.2500
vt 0.2061 0.0955 0.2500
vt 0.3455 0.0245 0.2500
vt 0.6545 0.0245 0.2500
vt 0.5000 0.0000 0.2500
vt 0.7939 0.0955 0.2500
vt 0.9045 0.2061 0.2500
vt 1.0000 0.5000 0.2500
vt 0.9755 0.3455 0.2500
vt 0.9755 0.6545 0.2500
vt 0.9045 0.7939 0.2500
vt 0.7939 0.9045 0.2500
vt 0.5000 1.0000 0.2500
vt 0.8000 1.0000 1.0000
vt 0.7500 1.0000 1.0000
vt 0.8500 1.0000 1.0000
vt 0.9000 1.0000 1.0000
vt 0.9500 1.0000 1.0000
vt 1.0000 1.0000 1.0000
vt 0.0500 1.0000 1.0000
vt 0.0000 1.0000 1.0000
vt 0.1000 1.0000 1.0000
vt 0.1500 1.0000 1.0000
vt 0.2000 1.0000 1.0000
vt 0.2500 1.0000 1.0000
vt 0.3000 1.0000 1.0000
vt 0.3500 1.0000 1.0000
vt 0.4000 1.0000 1.0000
vt 0.4500 1.0000 1.0000
vt 0.5000 1.0000 1.0000
vt 0.5500 1.0000 1.0000
vt 0.6000 1.0000 1.0000
vt 0.6500 1.0000 1.0000
vt 0.7000 1.0000 1.0000
# 103 texture coords

g Cylinder002
usemtl wire_153228153
s 8
f 1/1/1 2/2/2 3/3/3 4/4/4 
f 5/5/5 6/6/6 2/2/2 1/1/1 
f 7/7/7 8/8/8 6/6/6 5/5/5 
f 9/9/9 10/10/10 8/8/8 7/7/7 
f 11/11/11 12/12/12 10/10/10 9/9/9 
f 13/13/13 14/14/14 12/15/12 11/16/11 
f 15/17/15 16/18/16 14/14/14 13/13/13 
f 17/19/17 18/20/18 16/18/16 15/17/15 
f 19/21/19 20/22/20 18/20/18 17/19/17 
f 21/23/21 22/24/22 20/22/20 19/21/19 
f 23/25/23 24/26/24 22/24/22 21/23/21 
f 25/27/25 26/28/26 24/26/24 23/25/23 
f 27/29/27 28/30/28 26/28/26 25/27/25 
f 29/31/29 30/32/30 28/30/28 27/29/27 
f 31/33/31 32/34/32 30/32/30 29/31/29 
f 33/35/33 34/36/34 32/34/32 31/33/31 
f 35/37/35 36/38/36 34/36/34 33/35/33 
f 37/39/37 38/40/38 36/38/36 35/37/35 
f 39/41/39 40/42/40 38/40/38 37/39/37 
f 4/4/4 3/3/3 40/42/40 39/41/39 
s 1
f 37/43/41 35/44/41 33/45/41 4/46/41 
f 33/45/41 31/47/41 29/48/41 25/49/41 
f 29/48/41 27/50/41 25/49/41 
f 25/49/41 23/51/41 21/52/41 17/53/41 
f 21/52/41 19/54/41 17/53/41 
f 17/53/41 15/55/41 13/56/41 9/57/41 
f 13/56/41 11/58/41 9/57/41 
f 9/57/41 7/59/41 5/60/41 4/46/41 
f 5/60/41 1/61/41 4/46/41 
f 17/53/41 9/57/41 4/46/41 25/49/41 
f 33/45/41 25/49/41 4/46/41 
f 39/62/41 37/43/41 4/46/41 
f 41/63/42 42/64/42 43/65/42 44/66/42 
f 43/65/42 45/67/42 46/68/42 47/69/42 
f 46/68/42 48/70/42 47/69/42 
f 47/69/42 49/71/42 50/72/42 51/73/42 
f 50/72/42 52/74/42 51/73/42 
f 51/73/42 53/75/42 54/76/42 55/77/42 
f 54/76/42 56/78/42 55/77/42 
f 55/77/42 57/79/42 58/80/42 44/66/42 
f 58/80/42 59/81/42 44/66/42 
f 51/73/42 55/77/42 44/66/42 47/69/42 
f 43/65/42 47/69/42 44/66/42 
f 60/82/42 41/63/42 44/66/42 
s 8
f 41/83/43 60/84/44 3/3/3 2/2/2 
f 42/85/45 41/83/43 2/2/2 6/6/6 
f 43/86/46 42/85/45 6/6/6 8/8/8 
f 45/87/47 43/86/46 8/8/8 10/10/10 
f 46/88/48 45/87/47 10/10/10 12/12/12 
f 48/89/49 46/90/48 12/15/12 14/14/14 
f 47/91/50 48/89/49 14/14/14 16/18/16 
f 49/92/51 47/91/50 16/18/16 18/20/18 
f 50/93/52 49/92/51 18/20/18 20/22/20 
f 52/94/53 50/93/52 20/22/20 22/24/22 
f 51/95/54 52/94/53 22/24/22 24/26/24 
f 53/96/55 51/95/54 24/26/24 26/28/26 
f 54/97/56 53/96/55 26/28/26 28/30/28 
f 56/98/57 54/97/56 28/30/28 30/32/30 
f 55/99/58 56/98/57 30/32/30 32/34/32 
f 57/100/59 55/99/58 32/34/32 34/36/34 
f 58/101/60 57/100/59 34/36/34 36/38/36 
f 59/102/61 58/101/60 36/38/36 38/40/38 
f 44/103/62 59/102/61 38/40/38 40/42/40 
f 60/84/44 44/103/62 40/42/40 3/3/3 
# 52 polygons - 12 triangles

#
# object Cylinder001
#

v  -7.8890 0.2729 -2.1445
v  -7.8890 -0.0844 -1.5257
v  -8.7370 -0.0844 -1.5257
v  -8.7370 0.2729 -2.1445
v  -7.8890 0.9875 -2.1445
v  -8.7370 0.9875 -2.1445
v  -7.8890 1.3448 -1.5257
v  -8.7370 1.3448 -1.5257
v  -7.8890 0.9875 -0.9068
v  -8.7370 0.9875 -0.9068
v  -7.8890 0.2729 -0.9068
v  -8.7370 0.2729 -0.9068
v  -9.5899 0.9296 -1.0071
v  -9.5899 1.2291 -1.5257
v  -9.5899 0.9296 -2.0443
v  -9.5899 0.0314 -1.5257
v  -9.5899 0.3308 -2.0443
v  -9.5899 0.3308 -1.0071
v  8.9225 0.5478 -1.6684
v  8.9225 0.7126 -1.6684
v  8.9225 0.7951 -1.5257
v  8.9225 0.5478 -1.3829
v  8.9225 0.7126 -1.3829
v  8.9225 0.4654 -1.5257
v  7.6115 0.2802 -2.1319
v  9.1259 0.5192 -1.7179
v  9.1259 0.4082 -1.5257
v  7.6115 -0.0698 -1.5257
v  9.1046 0.7412 -1.7179
v  7.6115 0.9802 -2.1319
v  9.1046 0.8522 -1.5257
v  7.6115 1.3302 -1.5257
v  9.1046 0.7412 -1.3334
v  7.6115 0.9802 -0.9195
v  9.1217 0.5192 -1.3334
v  7.6115 0.2802 -0.9195
v  7.5475 0.2802 -2.1319
v  7.5475 -0.0698 -1.5257
v  -7.8352 -0.0698 -1.5257
v  -7.8352 0.2802 -2.1319
v  7.5475 0.9802 -2.1319
v  -7.8352 0.9802 -2.1319
v  7.5475 1.3302 -1.5257
v  -7.8352 1.3302 -1.5257
v  7.5475 0.9802 -0.9195
v  -7.8352 0.9802 -0.9195
v  7.5475 0.2802 -0.9195
v  -7.8352 0.2802 -0.9195
v  -8.6504 0.2809 -2.1308
v  -8.6504 -0.0685 -1.5257
v  -8.6504 -0.0156 -1.5257
v  -8.6504 0.3073 -2.0850
v  -8.6504 0.9796 -2.1308
v  -8.6504 0.9532 -2.0850
v  -8.6504 1.3290 -1.5257
v  -8.6504 1.2761 -1.5257
v  -8.6504 0.9796 -0.9205
v  -8.6504 0.9532 -0.9663
v  -8.6504 0.2809 -0.9206
v  -8.6504 0.3073 -0.9663
v  -7.9263 0.0002 -1.5257
v  -7.9263 -0.0730 -1.5257
v  -7.9263 0.2786 -2.1346
v  -7.9263 0.3152 -2.0713
v  -7.9263 0.3152 -0.9801
v  -7.9263 0.2786 -0.9167
v  -7.9263 0.9452 -0.9801
v  -7.9263 0.9818 -0.9167
v  -7.9263 1.2602 -1.5257
v  -7.9263 1.3334 -1.5257
v  -7.9263 0.9452 -2.0713
v  -7.9263 0.9818 -2.1346
v  -8.7552 0.0002 -1.5257
v  -8.7761 0.0002 -1.5257
v  -8.7761 0.3152 -2.0713
v  -8.7552 0.3152 -2.0713
v  -8.7552 0.3152 -0.9801
v  -8.7761 0.3152 -0.9801
v  -8.7552 0.9452 -0.9801
v  -8.7761 0.9452 -0.9801
v  -8.7552 1.2602 -1.5257
v  -8.7761 1.2602 -1.5257
v  -8.7552 0.9452 -2.0713
v  -8.7761 0.9452 -2.0713
v  -9.5736 0.0002 -1.5257
v  -9.5736 0.3152 -2.0713
v  -9.5736 0.3152 -0.9801
v  -9.5736 0.9452 -0.9801
v  -9.5736 1.2602 -1.5257
v  -9.5736 0.9452 -2.0713
v  -9.5899 0.0002 -1.5257
v  -9.5899 0.3152 -2.0713
v  -9.5899 0.3152 -0.9801
v  -9.5899 0.9452 -0.9801
v  -9.5899 1.2602 -1.5257
v  -9.5899 0.9452 -2.0713
v  -8.7453 0.2737 -2.1432
v  -8.7453 -0.0829 -1.5257
v  -8.7453 0.9868 -2.1432
v  -8.7453 1.3433 -1.5257
v  -8.7453 0.9868 -0.9081
v  -8.7453 0.2737 -0.9081
v  -7.8797 0.2729 -2.1445
v  -7.8797 -0.0844 -1.5257
v  -8.7452 -0.0844 -1.5257
v  -8.7452 0.2729 -2.1445
v  -7.8797 0.9875 -2.1445
v  -8.7452 0.9875 -2.1445
v  -7.8797 1.3448 -1.5257
v  -8.7452 1.3448 -1.5257
v  -7.8797 0.9875 -0.9068
v  -8.7452 0.9875 -0.9068
v  -7.8797 0.2729 -0.9068
v  -8.7452 0.2729 -0.9068
v  -7.8795 -0.0826 -1.5257
v  -7.8795 0.2738 -2.1430
v  -7.8795 0.2738 -0.9084
v  -7.8795 0.9866 -0.9084
v  -7.8795 1.3430 -1.5257
v  -7.8795 0.9866 -2.1430
v  9.1972 0.4308 -1.5257
v  9.1972 0.5305 -1.6984
v  9.1843 0.5478 -1.6684
v  9.1843 0.4654 -1.5257
v  9.1749 0.7300 -1.6984
v  9.1940 0.7126 -1.6684
v  9.1749 0.8297 -1.5257
v  9.1940 0.7951 -1.5257
v  9.1749 0.7300 -1.3529
v  9.1940 0.7126 -1.3829
v  9.1972 0.5305 -1.3529
v  9.1843 0.5478 -1.3829
# 132 vertices

vn 0.0000 -0.5000 -0.8660
vn 0.0000 -1.0000 0.0000
vn -0.0000 0.5000 -0.8660
vn -0.0000 1.0000 -0.0000
vn -0.0000 0.5000 0.8660
vn 0.0000 -0.5000 0.8660
vn -1.0000 -0.0000 -0.0000
vn -1.0000 0.0000 0.0000
vn -1.0000 -0.0000 0.0000
vn 1.0000 0.0000 -0.0000
vn 0.1463 -0.4942 -0.8569
vn 0.3017 -0.4651 -0.8323
vn 0.3015 -0.9535 0.0021
vn 0.1455 -0.9894 -0.0000
vn 0.3023 0.4859 -0.8201
vn 0.1473 0.4945 -0.8566
vn 0.3049 0.9524 0.0000
vn 0.1473 0.9891 0.0000
vn 0.3035 0.4866 0.8192
vn 0.1466 0.4949 0.8565
vn 0.2971 -0.4686 0.8320
vn 0.1456 -0.4946 0.8568
vn -0.2944 -0.9557 0.0000
vn -0.2944 -0.4778 -0.8277
vn -0.2944 0.4778 -0.8277
vn -0.0000 1.0000 0.0000
vn -0.2944 0.9557 0.0000
vn -0.2944 0.4778 0.8277
vn -0.2944 -0.4778 0.8277
vn 1.0000 -0.0000 0.0000
vn 1.0000 -0.0000 -0.0000
vn 1.0000 0.0000 0.0000
vn -0.0000 -0.8660 -0.5000
vn -0.0000 -0.8660 0.5000
vn 0.0000 0.0000 1.0000
vn 0.0000 0.8660 0.5000
vn 0.0000 0.8660 -0.5000
vn -0.0000 0.0000 -1.0000
vn 0.0000 -0.8660 -0.5000
vn 0.0000 -0.8660 0.5000
vn -0.0000 0.8660 0.5000
vn -0.0000 0.8660 -0.5000
vn -0.1299 0.8587 0.4958
vn -0.1299 -0.8587 -0.4958
vn -0.1299 -0.0000 0.9915
vn -0.1299 0.0000 -0.9915
vn -0.1299 -0.8587 0.4958
vn -0.1299 0.8587 -0.4958
vn -0.6096 -0.7927 0.0000
vn -0.6096 -0.3964 -0.6865
vn -0.6096 0.3964 -0.6865
vn -0.6096 0.7927 0.0000
vn -0.6096 0.3964 0.6865
vn -0.6096 -0.3964 0.6865
vn 0.1753 0.8526 0.4923
vn 0.1753 0.8526 -0.4923
vn 0.1753 0.0000 -0.9845
vn 0.1753 -0.8526 -0.4923
vn 0.1753 -0.8526 0.4923
vn 0.1753 -0.0000 0.9845
vn 0.9932 -0.1010 -0.0583
vn 0.9932 -0.1010 0.0583
vn 0.9932 -0.0000 0.1167
vn 0.9932 0.1010 0.0583
vn 0.9932 0.1010 -0.0583
vn 0.9932 0.0000 -0.1167
vn 0.9179 0.3437 0.1984
vn 0.9943 0.0344 -0.1014
vn 0.8437 0.4649 -0.2684
vn 0.8437 0.4649 0.2684
vn 0.9943 0.0344 0.1014
vn 0.9179 0.3437 -0.1984
vn -0.9962 -0.0749 -0.0433
vn -0.9962 -0.0000 -0.0865
vn -0.9962 0.0749 -0.0433
vn -0.9962 0.0749 0.0433
vn -0.9962 -0.0000 0.0865
vn -0.9962 -0.0749 0.0433
vn 0.0000 -0.0000 1.0000
vn 0.0000 0.0000 -1.0000
vn 0.3010 -0.4800 -0.8240
vn 0.2995 -0.9541 0.0022
vn 0.3036 0.4740 -0.8266
vn 0.3049 0.4757 0.8251
vn 0.2886 -0.4857 0.8251
# 85 vertex normals

vt 0.9167 0.0535 1.0000
vt 0.7500 0.0535 1.0000
vt 0.7500 0.0011 1.0000
vt 0.9167 0.0011 1.0000
vt 1.0833 0.0535 1.0000
vt 1.0833 0.0011 1.0000
vt 0.2500 0.0535 1.0000
vt 0.0833 0.0535 1.0000
vt 0.0833 0.0011 1.0000
vt 0.2500 0.0011 1.0000
vt 0.4167 0.0535 1.0000
vt 0.4167 0.0011 1.0000
vt 0.5833 0.0535 1.0000
vt 0.5833 0.0011 1.0000
vt 0.9330 0.2500 -0.2500
vt 0.5000 0.0000 -0.2500
vt 0.0670 0.2500 -0.2500
vt 0.5000 1.0000 -0.2500
vt 0.0670 0.7500 -0.2500
vt 0.9330 0.7500 -0.2500
vt 0.0670 0.7500 0.2500
vt 0.0670 0.2500 0.2500
vt 0.5000 0.0000 0.2500
vt 0.9330 0.7500 0.2500
vt 0.9330 0.2500 0.2500
vt 0.5000 1.0000 0.2500
vt 0.9167 0.9100 1.0000
vt 0.9167 0.9959 1.0000
vt 0.7500 0.9959 1.0000
vt 0.7500 0.9100 1.0000
vt 1.0833 0.9959 1.0000
vt 1.0833 0.9100 1.0000
vt 0.2500 0.9959 1.0000
vt 0.0833 0.9959 1.0000
vt 0.0833 0.9100 1.0000
vt 0.2500 0.9100 1.0000
vt 0.4167 0.9959 1.0000
vt 0.4167 0.9100 1.0000
vt 0.5833 0.9959 1.0000
vt 0.5833 0.9100 1.0000
vt 0.9167 0.9064 1.0000
vt 0.7500 0.9064 1.0000
vt 0.7500 0.0582 1.0000
vt 0.9167 0.0582 1.0000
vt 1.0833 0.9064 1.0000
vt 1.0833 0.0582 1.0000
vt 0.2500 0.9064 1.0000
vt 0.0833 0.9064 1.0000
vt 0.0833 0.0582 1.0000
vt 0.2500 0.0582 1.0000
vt 0.4167 0.9064 1.0000
vt 0.4167 0.0582 1.0000
vt 0.5833 0.9064 1.0000
vt 0.5833 0.0582 1.0000
vt 0.7574 0.1406 0.7656
vt 0.7031 0.1875 0.7656
vt 0.5469 0.8125 -0.0156
vt 0.2263 0.6094 -0.0156
vt 0.8928 0.0469 0.7656
vt 0.2576 0.2031 -0.0156
vt 0.2969 0.0000 0.7656
vt 0.0803 0.0469 0.7656
vt 0.0701 0.2031 -0.0156
vt 0.4531 0.0000 -0.0156
vt 0.5135 0.0469 0.7656
vt 0.8362 0.2031 -0.0156
vt 0.6489 0.1406 0.7656
vt 0.8674 0.6094 -0.0156
vt 0.7500 0.0546 1.0000
vt 0.9167 0.0546 1.0000
vt 0.5833 0.0546 1.0000
vt 0.4167 0.0546 1.0000
vt 0.2500 0.0546 1.0000
vt 0.0833 0.0546 1.0000
vt 1.0833 0.0546 1.0000
vt 0.9016 0.0133 0.9779
vt 0.7456 0.0177 0.9779
vt 1.0654 0.0044 0.9779
vt 0.2544 0.0000 0.9779
vt 0.0830 0.0044 0.9779
vt 0.4258 0.0044 0.9779
vt 0.5895 0.0133 0.9779
vt 0.9167 0.0540 1.0000
vt 0.7500 0.0540 1.0000
vt 0.7500 0.0006 1.0000
vt 0.9167 0.0006 1.0000
vt 1.0833 0.0540 1.0000
vt 1.0833 0.0006 1.0000
vt 0.2500 0.0540 1.0000
vt 0.0833 0.0540 1.0000
vt 0.0833 0.0006 1.0000
vt 0.2500 0.0006 1.0000
vt 0.4167 0.0540 1.0000
vt 0.4167 0.0006 1.0000
vt 0.5833 0.0540 1.0000
vt 0.5833 0.0006 1.0000
vt 0.7500 1.0000 1.0000
vt 0.9167 1.0000 1.0000
vt 1.0833 1.0000 1.0000
vt 0.0833 1.0000 1.0000
vt 0.2500 1.0000 1.0000
vt 0.4167 1.0000 1.0000
vt 0.5833 1.0000 1.0000
# 103 texture coords

g Cylinder001
usemtl wire_153228153
s 8
f 61/104/63 62/105/64 63/106/64 64/107/63 
f 65/108/65 61/104/63 64/107/63 66/109/65 
f 67/110/66 65/111/65 66/112/65 68/113/66 
f 69/114/67 67/110/66 68/113/66 70/115/67 
f 71/116/68 69/114/67 70/115/67 72/117/68 
f 62/105/64 71/116/68 72/117/68 63/106/64 
s 1
f 73/118/69 74/119/70 75/120/71 76/121/69 
f 75/120/71 77/122/71 76/121/69 
f 78/123/69 73/118/69 76/121/69 
f 79/124/72 80/125/72 81/126/72 82/127/72 
f 81/126/72 83/128/72 82/127/72 
f 84/129/72 79/124/72 82/127/72 
s 8
f 85/130/73 86/131/74 87/132/75 88/133/76 
f 89/134/77 86/131/74 85/130/73 90/135/78 
f 91/136/79 89/137/77 90/138/78 92/139/80 
f 93/140/81 91/136/79 92/139/80 94/141/82 
f 95/142/83 93/140/81 94/141/82 96/143/84 
f 87/132/75 95/142/83 96/143/84 88/133/76 
f 97/144/63 98/145/64 99/146/85 100/147/86 
f 101/148/65 97/144/63 100/147/86 102/149/87 
f 103/150/88 101/151/65 102/152/87 104/153/89 
f 105/154/67 103/150/88 104/153/89 106/155/90 
f 107/156/68 105/154/67 106/155/90 108/157/91 
f 98/145/64 107/156/68 108/157/91 99/146/85 
s off
f 109/158/69 110/159/69 111/160/69 112/161/69 
f 113/162/69 109/158/69 112/161/69 114/163/69 
f 115/164/69 113/165/69 114/166/69 116/167/69 
f 117/168/69 115/164/69 116/167/69 118/169/69 
f 119/170/69 117/168/69 118/169/69 120/171/69 
f 110/159/69 119/170/69 120/171/69 111/160/69 
f 121/172/92 122/172/92 123/173/92 124/173/92 
f 125/174/93 126/174/93 122/172/93 121/172/93 
f 127/175/72 128/175/72 126/174/72 125/174/72 
f 129/176/94 130/176/94 128/175/94 127/175/94 
f 131/177/72 132/177/72 130/176/72 129/176/72 
f 124/173/72 123/173/72 132/178/72 131/178/72 
f 133/121/95 134/121/95 135/122/95 136/122/95 
f 137/123/96 138/123/96 134/121/96 133/121/96 
f 139/118/97 140/118/97 138/123/97 137/123/97 
f 141/119/98 142/119/98 140/118/98 139/118/98 
f 143/120/99 144/120/99 142/119/99 141/119/99 
f 136/122/100 135/122/100 144/120/100 143/120/100 
f 145/121/101 146/122/101 135/122/101 134/121/101 
f 147/123/102 145/121/102 134/121/102 138/123/102 
f 148/118/97 147/123/97 138/123/97 140/118/97 
f 149/119/103 148/118/103 140/118/103 142/119/103 
f 150/120/104 149/119/104 142/119/104 144/120/104 
f 146/122/100 150/120/100 144/120/100 135/122/100 
f 151/121/101 152/122/101 146/122/101 145/121/101 
f 153/123/102 151/121/102 145/121/102 147/123/102 
f 154/118/97 153/123/97 147/123/97 148/118/97 
f 155/119/103 154/118/103 148/118/103 149/119/103 
f 156/120/104 155/119/104 149/119/104 150/120/104 
f 152/122/100 156/120/100 150/120/100 146/122/100 
f 152/122/71 151/121/71 76/121/71 77/122/71 
f 151/121/69 153/123/69 78/123/69 76/121/69 
f 153/123/69 154/118/69 73/118/69 78/123/69 
f 154/118/69 155/119/69 74/119/69 73/118/69 
f 155/119/71 156/120/71 75/120/71 74/119/71 
f 156/120/69 152/122/69 77/122/69 75/120/69 
f 157/179/105 158/180/105 110/159/105 109/158/105 
f 133/121/106 136/122/106 112/161/106 111/160/106 
f 159/181/107 157/179/107 109/158/107 113/162/107 
f 136/122/108 143/120/108 114/163/108 112/161/108 
f 160/182/109 159/183/109 113/165/109 115/164/109 
f 143/120/110 141/119/110 116/167/110 114/166/110 
f 161/184/106 160/182/106 115/164/106 117/168/106 
f 141/119/105 139/118/105 118/169/105 116/167/105 
f 162/185/108 161/184/108 117/168/108 119/170/108 
f 139/118/107 137/123/107 120/171/107 118/169/107 
f 158/180/110 162/185/110 119/170/110 110/159/110 
f 137/123/109 133/121/109 111/160/109 120/171/109 
s 8
f 163/186/63 164/187/64 62/105/64 61/104/63 
f 165/188/64 166/189/63 64/107/63 63/106/64 
f 167/190/65 163/186/63 61/104/63 65/108/65 
f 166/189/63 168/191/65 66/109/65 64/107/63 
f 169/192/66 167/193/65 65/111/65 67/110/66 
f 168/194/65 170/195/66 68/113/66 66/112/65 
f 171/196/67 169/192/66 67/110/66 69/114/67 
f 170/195/66 172/197/67 70/115/67 68/113/66 
f 173/198/68 171/196/67 69/114/67 71/116/68 
f 172/197/67 174/199/68 72/117/68 70/115/67 
f 164/187/64 173/198/68 71/116/68 62/105/64 
f 174/199/68 165/188/64 63/106/64 72/117/68 
f 85/130/73 88/133/76 98/145/64 97/144/63 
f 121/172/111 124/173/112 100/147/86 99/146/85 
f 90/135/78 85/130/73 97/144/63 101/148/65 
f 124/173/112 131/178/113 102/149/87 100/147/86 
f 92/139/80 90/138/78 101/151/65 103/150/88 
f 131/177/113 129/176/114 104/153/89 102/152/87 
f 94/141/82 92/139/80 103/150/88 105/154/67 
f 129/176/114 127/175/115 106/155/90 104/153/89 
f 96/143/84 94/141/82 105/154/67 107/156/68 
f 127/175/115 125/174/116 108/157/91 106/155/90 
f 88/133/76 96/143/84 107/156/68 98/145/64 
f 125/174/116 121/172/111 99/146/85 108/157/91 
s off
f 175/172/117 176/173/117 123/173/117 122/172/117 
f 177/174/118 175/172/118 122/172/118 126/174/118 
f 178/175/119 177/174/119 126/174/119 128/175/119 
f 179/176/120 178/175/120 128/175/120 130/176/120 
f 180/177/121 179/176/121 130/176/121 132/177/121 
f 176/173/122 180/178/122 132/178/122 123/173/122 
f 163/186/123 176/173/123 175/172/123 164/187/123 
f 164/187/124 175/172/124 177/174/124 173/198/124 
f 173/198/125 177/174/125 178/175/125 171/196/125 
f 171/196/126 178/175/126 179/176/126 169/192/126 
f 169/192/127 179/176/127 180/177/127 167/193/127 
f 167/190/128 180/178/128 176/173/128 163/186/128 
f 181/200/129 182/201/129 183/124/129 184/129/129 
f 183/124/130 182/201/130 185/202/130 186/125/130 
f 185/203/131 187/204/131 188/126/131 186/125/131 
f 187/204/132 189/205/132 190/128/132 188/126/132 
f 189/205/133 191/206/133 192/127/133 190/128/133 
f 191/206/134 181/200/134 184/129/134 192/127/134 
f 165/188/135 158/180/135 157/179/135 166/189/135 
f 166/189/136 157/179/136 159/181/136 168/191/136 
f 168/194/137 159/183/137 160/182/137 170/195/137 
f 170/195/138 160/182/138 161/184/138 172/197/138 
f 172/197/139 161/184/139 162/185/139 174/199/139 
f 174/199/140 162/185/140 158/180/140 165/188/140 
f 184/129/103 183/124/103 79/124/103 84/129/103 
f 183/124/141 186/125/141 80/125/141 79/124/141 
f 186/125/102 188/126/102 81/126/102 80/125/102 
f 188/126/101 190/128/101 83/128/101 81/126/101 
f 190/128/142 192/127/142 82/127/142 83/128/142 
f 192/127/104 184/129/104 84/129/104 82/127/104 
s 8
f 86/131/74 182/201/143 181/200/144 87/132/75 
f 185/202/145 182/201/143 86/131/74 89/134/77 
f 187/204/79 185/203/145 89/137/77 91/136/79 
f 93/140/81 189/205/146 187/204/79 91/136/79 
f 191/206/147 189/205/146 93/140/81 95/142/83 
f 181/200/144 191/206/147 95/142/83 87/132/75 
# 128 polygons - 4 triangles

