mtllib bunny-150.mtl
g default
v -0.492009 0.643541 0.161703
v -0.28515 0.847379 0.22524
v -0.241409 1.01891 0.179353
v -0.427042 1.01256 0.185371
v 0.707466 0.441829 -0.164658
v 0.762709 0.61307 -0.081471
v 0.697746 0.499718 0.003313
v 0.690104 0.454367 0.174706
v 0.718209 0.700545 0.073955
v 0.591155 0.75058 -0.020815
v 0.330333 0.726759 -0.257249
v -0.221602 0.61877 -0.153613
v -0.241252 0.716825 0.000873
v 0.242633 0.868273 0.000188
v 0.053931 0.604499 -0.260423
v 0.278454 0.602393 -0.332074
v 0.046429 0.594933 0.264571
v 0.270057 0.594441 0.336093
v 0.329859 0.730214 0.246719
v 0.347681 0.071947 0.260305
v 0.24784 -0.016633 0.304778
v 0.568751 -0.013647 0.180875
v -0.41295 0.345596 0.138567
v -0.502226 0.312652 -0.013334
v -0.213449 0.149732 -0.05337
v -0.006402 0.14131 0.031846
v 0.207772 0.147884 0.009341
v 0.048788 0.24329 0.191923
v 0.482457 0.105859 -0.015196
v 0.231822 0.116783 0.097642
v -0.615849 0.680776 0.121576
v 0.576147 0.0891 0.138984
v 0.450025 -0.013439 -0.090772
v 0.597266 -0.011594 -0.151532
v 0.733892 0.24767 -0.100166
v 0.251976 -0.016089 -0.306738
v -0.35384 0.821978 -0.15149
v -0.21375 1.01467 -0.202778
v -0.348207 0.773356 0.006389
v -0.509449 0.78277 -0.130789
v -0.456041 0.775209 -0.009787
v -0.361158 1.04683 -0.171315
v -0.583343 0.416536 -0.170742
v -0.362524 0.41377 -0.213618
v -0.373666 -0.021532 -0.186948
v -0.22063 0.01432 -0.017709
v -0.272172 0.117991 -0.159848
v -0.170995 0.010525 -0.211986
v -0.173812 0.209529 -0.191835
v 0.054136 0.241977 -0.193125
v 0.360391 0.065084 -0.257881
v 0.314633 0.366569 -0.359068
v -0.074492 0.369465 -0.271713
v 0.197606 0.133025 -0.181451
v 0.143066 0.355369 -0.275518
v 0.200886 -0.010366 -0.057722
v 0.759915 0.359123 0.073671
v 0.540094 -0.013186 0.082519
v 0.031438 -0.011708 0.163097
v -0.155735 0.631579 0.173838
v -0.401863 0.589426 0.228519
v -0.669085 0.398416 0.126567
v -0.181808 -0.000655 0.20134
v 0.104616 0.384529 0.279602
v 0.22817 0.120174 0.218374
v -0.266876 0.123116 0.171138
v -0.178744 0.210467 0.194991
v -0.399449 0.59763 -0.234737
v -0.682078 0.664968 -0.082627
v -0.487214 0.645281 -0.16871
v 0.044092 0.162292 -0.074926
v -0.740918 0.393828 -0.06326
v -0.152016 0.332791 0.263991
v -0.229421 0.013808 0.010629
v -0.377303 -0.020659 0.172206
v 0.029629 -0.015042 -0.216297
v 0.315725 0.382296 0.359549
vt 0.233466 0.510016
vt 0.380879 0.60126
vt 0.379441 0.634722
vt 0.286444 0.631971
vt 0.857717 0.393423
vt 0.885392 0.467624
vt 0.852848 0.418507
vt 0.84902 0.398856
vt 0.863099 0.505528
vt 0.799449 0.527208
vt 0.668785 0.516887
vt 0.392282 0.470094
vt 0.40287 0.544689
vt 0.62485 0.578206
vt 0.530316 0.46391
vt 0.642795 0.462997
vt 0.526558 0.459765
vt 0.638589 0.459552
vt 0.668548 0.518384
vt 0.677476 0.233149
vt 0.627459 0.194766
vt 0.788225 0.19606
vt 0.214695 0.348805
vt 0.169971 0.33453
vt 0.396367 0.266854
vt 0.500091 0.263205
vt 0.607386 0.266053
vt 0.52774 0.307394
vt 0.744995 0.247843
vt 0.619434 0.252577
vt 0.174345 0.543663
vt 0.79193 0.240581
vt 0.728747 0.19615
vt 0.80251 0.19695
vt 0.870956 0.309292
vt 0.629531 0.195002
vt 0.346467 0.590253
vt 0.372865 0.600778
vt 0.349289 0.569185
vt 0.268512 0.573264
vt 0.295267 0.569988
vt 0.31945 0.64682
vt 0.120577 0.449597
vt 0.239957 0.378346
vt 0.316103 0.192643
vt 0.392769 0.208178
vt 0.366948 0.2531
vt 0.417635 0.206534
vt 0.416224 0.292765
vt 0.530419 0.306825
vt 0.683843 0.230175
vt 0.66092 0.360812
vt 0.46598 0.362067
vt 0.602293 0.259615
vt 0.57497 0.355959
vt 0.603936 0.197482
vt 0.883993 0.357586
vt 0.773869 0.19626
vt 0.519048 0.1969
vt 0.42528 0.475644
vt 0.290302 0.469054
vt 0.077623 0.441745
vt 0.412218 0.20169
vt 0.555708 0.368594
vt 0.617605 0.254046
vt 0.369601 0.255321
vt 0.413753 0.293171
vt 0.291511 0.472609
vt 0.141166 0.536813
vt 0.235868 0.51077
vt 0.525387 0.272297
vt 0.041637 0.439757
vt 0.427143 0.346176
vt 0.388365 0.207957
vt 0.314281 0.193022
vt 0.518142 0.195456
vt 0.661467 0.367627
vn -0.176306 0.117756 0.977266
vn 0.763739 -0.472374 0.439961
vn 0.393657 0.918802 -0.028946
vn -0.63311 0.652268 0.416795
vn 0.658683 0.115313 -0.743532
vn 0.963959 0.085943 -0.251787
vn 0.981944 -0.181808 0.052271
vn 0.66072 0.087024 0.745571
vn 0.592864 0.669775 0.447117
vn 0.374719 0.921984 -0.097626
vn 0.039723 0.707197 -0.7059
vn 0.001258 0.571618 -0.820519
vn -0.006977 0.999748 0.021355
vn -0.038388 0.991658 0.123052
vn -0.279036 0.250212 -0.92711
vn 0.084804 0.305974 -0.948255
vn -0.318213 0.301369 0.898842
vn -0.012815 0.255768 0.966653
vn 0.108445 0.698429 0.707415
vn 0.14025 -0.043626 0.989155
vn -0.080923 -0.368513 0.926094
vn 0.714942 -0.330423 0.616181
vn -0.381269 -0.647617 0.659716
vn -0.364051 -0.911496 -0.191421
vn -0.807913 -0.569403 0.151846
vn 0.248461 -0.959488 0.132855
vn -0.415999 -0.900209 -0.128721
vn 0.258963 -0.588831 0.765647
vn 0.625436 -0.765287 -0.152204
vn -0.415999 -0.900209 -0.128721
vn -0.748702 0.499903 0.435366
vn 0.937894 -0.222444 0.266222
vn -0.019589 -0.86418 0.502801
vn 0.795021 -0.499004 -0.344871
vn 0.884876 -0.464764 -0.031459
vn -0.000466 -0.32384 -0.946112
vn 0.280694 -0.310022 -0.908349
vn 0.7829 0.435055 0.444741
vn 0.810655 0.550105 -0.200556
vn -0.575306 0.627646 -0.524484
vn -0.354374 0.934954 0.016742
vn -0.634861 0.55149 -0.54112
vn -0.382365 -0.276121 -0.881791
vn -0.149424 -0.296521 -0.943264
vn -0.864841 -0.325694 -0.382065
vn -0.630899 -0.732726 0.255106
vn -0.720713 0.630455 -0.288269
vn 0.213038 -0.535674 -0.81711
vn -0.535643 -0.229923 -0.81254
vn 0.229398 -0.578303 -0.782906
vn 0.329319 -0.043034 -0.943237
vn -0.138501 -0.162838 -0.976884
vn -0.1276 -0.127227 -0.983632
vn -0.887468 0.132878 -0.441297
vn -0.311977 -0.413226 -0.85552
vn -0.324826 0.115001 0.938756
vn 0.962644 -0.215303 -0.164198
vn 0.31651 -0.749186 -0.581843
vn -0.978227 -0.000959 -0.207537
vn -0.181647 0.569845 0.801424
vn -0.093298 0.381155 0.919791
vn -0.514173 -0.371681 0.772968
vn 0.238109 -0.615558 0.751261
vn -0.311623 -0.265013 0.912502
vn -0.801531 0.080396 0.592524
vn -0.857367 0.44771 0.253923
vn -0.422147 -0.207587 0.88244
vn -0.023794 0.385968 -0.922205
vn -0.722644 0.381315 -0.576528
vn -0.146883 0.228406 -0.962422
vn 0.408664 -0.892797 -0.189494
vn -0.902681 -0.401879 -0.153818
vn -0.12024 -0.21073 0.970121
vn -0.630899 -0.732726 0.255106
vn -0.826005 -0.385126 0.411574
vn -0.693742 -0.715194 -0.084965
vn 0.049934 -0.091955 0.99451
s off
g mesh
usemtl initialShadingGroup
f 1/1/1 2/2/2 3/3/3
f 1/1/1 3/3/3 4/4/4
f 5/5/5 6/6/6 7/7/7
f 6/6/6 8/8/8 7/7/7
f 9/9/9 10/10/10 8/8/8
f 5/5/5 10/10/10 6/6/6
f 6/6/6 10/10/10 9/9/9
f 8/8/8 6/6/6 9/9/9
f 11/11/11 12/12/12 13/13/13
f 11/11/11 13/13/13 14/14/14
f 11/11/11 14/14/14 10/10/10
f 15/15/15 12/12/12 11/11/11
f 5/5/5 16/16/16 11/11/11
f 16/16/16 15/15/15 11/11/11
f 10/10/10 5/5/5 11/11/11
f 17/17/17 18/18/18 19/19/19
f 20/20/20 21/21/21 22/22/22
f 23/23/23 24/24/24 25/25/25
f 26/26/26 27/27/27 28/28/28
f 29/29/29 30/30/30 27/27/27
f 1/1/1 4/4/4 31/31/31
f 8/8/8 20/20/20 32/32/32
f 29/29/29 33/33/33 34/34/34
f 7/7/7 29/29/29 35/35/35
f 36/36/36 34/34/34 33/33/33
f 37/37/37 38/38/38 39/39/39
f 40/40/40 41/41/41 42/42/42
f 37/37/37 40/40/40 42/42/42
f 24/24/24 43/43/43 44/44/44
f 45/45/45 46/46/46 47/47/47
f 48/48/48 49/49/49 50/50/50
f 51/51/51 52/52/52 5/5/5
f 53/53/53 44/44/44 12/12/12
f 54/54/54 55/55/55 52/52/52
f 33/33/33 54/54/54 56/56/56
f 39/39/39 38/38/38 41/41/41
f 5/5/5 7/7/7 35/35/35
f 29/29/29 7/7/7 57/57/57
f 22/22/22 21/21/21 58/58/58
f 58/58/58 21/21/21 59/59/59
f 60/60/60 13/13/13 61/61/61
f 39/39/39 1/1/1 61/61/61
f 41/41/41 31/31/31 4/4/4
f 62/62/62 61/61/61 1/1/1
f 26/26/26 28/28/28 63/63/63
f 19/19/19 8/8/8 10/10/10
f 27/27/27 64/64/64 28/28/28
f 20/20/20 65/65/65 21/21/21
f 25/25/25 66/66/66 67/67/67
f 61/61/61 13/13/13 39/39/39
f 58/58/58 29/29/29 32/32/32
f 29/29/29 51/51/51 35/35/35
f 44/44/44 68/68/68 12/12/12
f 38/38/38 37/37/37 42/42/42
f 69/69/69 70/70/70 43/43/43
f 68/68/68 43/43/43 70/70/70
f 71/71/71 46/46/46 48/48/48
f 54/54/54 51/51/51 36/36/36
f 33/33/33 27/27/27 54/54/54
f 55/55/55 53/53/53 15/15/15
f 52/52/52 55/55/55 15/15/15
f 52/52/52 15/15/15 16/16/16
f 49/49/49 53/53/53 50/50/50
f 45/45/45 47/47/47 48/48/48
f 54/54/54 52/52/52 51/51/51
f 71/71/71 26/26/26 46/46/46
f 43/43/43 24/24/24 72/72/72
f 70/70/70 40/40/40 37/37/37
f 39/39/39 70/70/70 37/37/37
f 52/52/52 16/16/16 5/5/5
f 34/34/34 51/51/51 29/29/29
f 8/8/8 57/57/57 7/7/7
f 23/23/23 73/73/73 61/61/61
f 62/62/62 31/31/31 72/72/72
f 27/27/27 30/30/30 65/65/65
f 67/67/67 73/73/73 23/23/23
f 64/64/64 17/17/17 60/60/60
f 67/67/67 63/63/63 28/28/28
f 65/65/65 59/59/59 21/21/21
f 74/74/74 75/75/75 66/66/66
f 62/62/62 24/24/24 23/23/23
f 2/2/2 39/39/39 3/3/3
f 58/58/58 30/30/30 29/29/29
f 29/29/29 57/57/57 32/32/32
f 32/32/32 22/22/22 58/58/58
f 70/70/70 39/39/39 68/68/68
f 39/39/39 12/12/12 68/68/68
f 46/46/46 49/49/49 47/47/47
f 76/76/76 54/54/54 36/36/36
f 29/29/29 27/27/27 33/33/33
f 24/24/24 49/49/49 25/25/25
f 55/55/55 50/50/50 53/53/53
f 35/35/35 51/51/51 5/5/5
f 56/56/56 54/54/54 76/76/76
f 25/25/25 46/46/46 26/26/26
f 46/46/46 45/45/45 48/48/48
f 49/49/49 24/24/24 44/44/44
f 65/65/65 64/64/64 27/27/27
f 20/20/20 22/22/22 32/32/32
f 8/8/8 18/18/18 77/77/77
f 58/58/58 59/59/59 30/30/30
f 3/3/3 39/39/39 41/41/41
f 31/31/31 41/41/41 40/40/40
f 1/1/1 31/31/31 62/62/62
f 62/62/62 23/23/23 61/61/61
f 74/74/74 26/26/26 63/63/63
f 66/66/66 26/26/26 74/74/74
f 67/67/67 66/66/66 63/63/63
f 64/64/64 20/20/20 77/77/77
f 73/73/73 28/28/28 64/64/64
f 60/60/60 19/19/19 14/14/14
f 60/60/60 14/14/14 13/13/13
f 19/19/19 10/10/10 14/14/14
f 64/64/64 60/60/60 73/73/73
f 65/65/65 20/20/20 64/64/64
f 66/66/66 25/25/25 26/26/26
f 67/67/67 23/23/23 25/25/25
f 74/74/74 63/63/63 75/75/75
f 39/39/39 2/2/2 1/1/1
f 73/73/73 60/60/60 61/61/61
f 8/8/8 77/77/77 20/20/20
f 8/8/8 32/32/32 57/57/57
f 44/44/44 43/43/43 68/68/68
f 48/48/48 50/50/50 71/71/71
f 50/50/50 55/55/55 27/27/27
f 47/47/47 49/49/49 48/48/48
f 15/15/15 53/53/53 12/12/12
f 53/53/53 49/49/49 44/44/44
f 51/51/51 34/34/34 36/36/36
f 71/71/71 50/50/50 27/27/27
f 26/26/26 71/71/71 27/27/27
f 46/46/46 25/25/25 49/49/49
f 69/69/69 43/43/43 72/72/72
f 69/69/69 40/40/40 70/70/70
f 41/41/41 38/38/38 42/42/42
f 39/39/39 13/13/13 12/12/12
f 33/33/33 56/56/56 76/76/76
f 33/33/33 76/76/76 36/36/36
f 54/54/54 27/27/27 55/55/55
f 4/4/4 3/3/3 41/41/41
f 31/31/31 40/40/40 69/69/69
f 31/31/31 69/69/69 72/72/72
f 24/24/24 62/62/62 72/72/72
f 59/59/59 65/65/65 30/30/30
f 66/66/66 75/75/75 63/63/63
f 73/73/73 67/67/67 28/28/28
f 64/64/64 77/77/77 18/18/18
f 64/64/64 18/18/18 17/17/17
f 18/18/18 8/8/8 19/19/19
f 17/17/17 19/19/19 60/60/60
